<?xml version="1.0" encoding="iso-8859-1"?>
<!-- Generator: Adobe Illustrator 18.0.0, SVG Export Plug-In . SVG Version: 6.00 Build 0)  -->
<!DOCTYPE svg PUBLIC "-//W3C//DTD SVG 1.1//EN" "http://www.w3.org/Graphics/SVG/1.1/DTD/svg11.dtd">
<svg version="1.1" id="Capa_1" xmlns="http://www.w3.org/2000/svg" xmlns:xlink="http://www.w3.org/1999/xlink" x="0px" y="0px"
	 viewBox="0 0 297 297" style="enable-background:new 0 0 297 297;" xml:space="preserve">
<g>
	<path d="M294.908,142.226c-0.566-0.756-14.168-18.72-38.881-36.693c-32.842-23.886-70.023-36.511-107.525-36.511c0,0,0,0-0.001,0
		l0,0H148.5c-37.5,0-74.681,12.625-107.524,36.51C16.262,123.506,2.658,141.47,2.092,142.226c-2.789,3.718-2.789,8.831,0,12.549
		c0.566,0.756,14.17,18.72,38.884,36.694c32.844,23.885,70.024,36.51,107.524,36.51h0.001l0,0c0.001,0,0.001,0,0.001,0
		c37.502,0,74.683-12.625,107.525-36.511c24.713-17.974,38.315-35.938,38.881-36.693
		C297.697,151.057,297.697,145.943,294.908,142.226z M148.501,207.064H148.5c-32.291,0-58.563-26.271-58.563-58.564
		s26.272-58.563,58.563-58.563h0.001c32.292,0,58.563,26.271,58.563,58.563S180.793,207.064,148.501,207.064z M24.153,148.5
		c5.686-6.283,15.785-16.427,29.681-26.457c9.117-6.581,18.457-12.156,27.994-16.724c-8.087,12.442-12.806,27.268-12.806,43.181
		s4.719,30.738,12.806,43.181c-9.537-4.567-18.877-10.143-27.994-16.724C39.937,164.925,29.836,154.779,24.153,148.5z
		 M243.167,174.957c-9.116,6.581-18.457,12.156-27.993,16.724c8.087-12.442,12.806-27.267,12.806-43.181
		s-4.719-30.738-12.806-43.181c9.536,4.567,18.877,10.143,27.993,16.724c13.897,10.032,23.998,20.178,29.68,26.457
		C267.162,154.783,257.063,164.927,243.167,174.957z"/>
	<path d="M165.756,122.617c-9.529,0-17.255,7.726-17.255,17.255c0-9.529-7.726-17.255-17.255-17.255s-17.256,7.726-17.256,17.255
		c0,8.019,0,20.132,34.511,37.387c34.511-17.255,34.511-28.148,34.511-37.387C183.012,130.343,175.286,122.617,165.756,122.617z"/>
</g>
<g>
</g>
<g>
</g>
<g>
</g>
<g>
</g>
<g>
</g>
<g>
</g>
<g>
</g>
<g>
</g>
<g>
</g>
<g>
</g>
<g>
</g>
<g>
</g>
<g>
</g>
<g>
</g>
<g>
</g>
</svg>
